<?xml version="1.0" encoding="UTF-8" standalone="no"?>
<!DOCTYPE svg PUBLIC "-//W3C//DTD SVG 1.1//EN" "http://www.w3.org/Graphics/SVG/1.1/DTD/svg11.dtd">
<svg width="100%" height="100%" viewBox="0 0 1080 1080" version="1.1" xmlns="http://www.w3.org/2000/svg" xmlns:xlink="http://www.w3.org/1999/xlink" xml:space="preserve" xmlns:serif="http://www.serif.com/" style="fill-rule:evenodd;clip-rule:evenodd;stroke-linejoin:round;stroke-miterlimit:2;">
    <path d="M1080,540C1080,508.564 1077.26,477.188 1071.8,446.23L540,540L1080,540Z" style="fill:url(#_Radial1);"/>
    <g transform="matrix(0.939693,-0.34202,0.34202,0.939693,-152.125,217.257)">
        <path d="M1080,540C1080,508.564 1077.26,477.188 1071.8,446.23L540,540L1080,540Z" style="fill:url(#_Radial2);"/>
    </g>
    <g transform="matrix(0.766044,-0.642788,0.642788,0.766044,-220.769,473.441)">
        <path d="M1080,540C1080,508.564 1077.26,477.188 1071.8,446.23L540,540L1080,540Z" style="fill:url(#_Radial3);"/>
    </g>
    <g transform="matrix(0.5,-0.866025,0.866025,0.5,-197.654,737.654)">
        <path d="M1080,540C1080,508.564 1077.26,477.188 1071.8,446.23L540,540L1080,540Z" style="fill:url(#_Radial4);"/>
    </g>
    <g transform="matrix(0.173648,-0.984808,0.984808,0.173648,-85.5662,978.026)">
        <path d="M1080,540C1080,508.564 1077.26,477.188 1071.8,446.23L540,540L1080,540Z" style="fill:url(#_Radial5);"/>
    </g>
    <g transform="matrix(-0.173648,-0.984808,0.984808,-0.173648,101.974,1165.57)">
        <path d="M1080,540C1080,508.564 1077.26,477.188 1071.8,446.23L540,540L1080,540Z" style="fill:url(#_Radial6);"/>
    </g>
    <g transform="matrix(-0.5,-0.866025,0.866025,-0.5,342.346,1277.65)">
        <path d="M1080,540C1080,508.564 1077.26,477.188 1071.8,446.23L540,540L1080,540Z" style="fill:url(#_Radial7);"/>
    </g>
    <g transform="matrix(-0.766044,-0.642788,0.642788,-0.766044,606.559,1300.77)">
        <path d="M1080,540C1080,508.564 1077.26,477.188 1071.8,446.23L540,540L1080,540Z" style="fill:url(#_Radial8);"/>
    </g>
    <g transform="matrix(-0.939693,-0.34202,0.34202,-0.939693,862.743,1232.12)">
        <path d="M1080,540C1080,508.564 1077.26,477.188 1071.8,446.23L540,540L1080,540Z" style="fill:url(#_Radial9);"/>
    </g>
    <g transform="matrix(-1,-1.22465e-16,1.22465e-16,-1,1080,1080)">
        <path d="M1080,540C1080,508.564 1077.26,477.188 1071.8,446.23L540,540L1080,540Z" style="fill:url(#_Radial10);"/>
    </g>
    <g transform="matrix(-0.939693,0.34202,-0.34202,-0.939693,1232.12,862.743)">
        <path d="M1080,540C1080,508.564 1077.26,477.188 1071.8,446.23L540,540L1080,540Z" style="fill:url(#_Radial11);"/>
    </g>
    <g transform="matrix(-0.766044,0.642788,-0.642788,-0.766044,1300.77,606.559)">
        <path d="M1080,540C1080,508.564 1077.26,477.188 1071.8,446.23L540,540L1080,540Z" style="fill:url(#_Radial12);"/>
    </g>
    <g transform="matrix(-0.5,0.866025,-0.866025,-0.5,1277.65,342.346)">
        <path d="M1080,540C1080,508.564 1077.26,477.188 1071.8,446.23L540,540L1080,540Z" style="fill:url(#_Radial13);"/>
    </g>
    <g transform="matrix(-0.173648,0.984808,-0.984808,-0.173648,1165.57,101.974)">
        <path d="M1080,540C1080,508.564 1077.26,477.188 1071.8,446.23L540,540L1080,540Z" style="fill:url(#_Radial14);"/>
    </g>
    <g transform="matrix(0.173648,0.984808,-0.984808,0.173648,978.026,-85.5662)">
        <path d="M1080,540C1080,508.564 1077.26,477.188 1071.8,446.23L540,540L1080,540Z" style="fill:url(#_Radial15);"/>
    </g>
    <g transform="matrix(0.5,0.866025,-0.866025,0.5,737.654,-197.654)">
        <path d="M1080,540C1080,508.564 1077.26,477.188 1071.8,446.23L540,540L1080,540Z" style="fill:url(#_Radial16);"/>
    </g>
    <g transform="matrix(0.766044,0.642788,-0.642788,0.766044,473.441,-220.769)">
        <path d="M1080,540C1080,508.564 1077.26,477.188 1071.8,446.23L540,540L1080,540Z" style="fill:url(#_Radial17);"/>
    </g>
    <g transform="matrix(0.939693,0.34202,-0.34202,0.939693,217.257,-152.125)">
        <path d="M1080,540C1080,508.564 1077.26,477.188 1071.8,446.23L540,540L1080,540Z" style="fill:url(#_Radial18);"/>
    </g>
    <defs>
        <radialGradient id="_Radial1" cx="0" cy="0" r="1" gradientUnits="userSpaceOnUse" gradientTransform="matrix(531.796,-93.77,93.77,531.796,540,540)"><stop offset="0" style="stop-color:white;stop-opacity:1"/><stop offset="1" style="stop-color:white;stop-opacity:0"/></radialGradient>
        <radialGradient id="_Radial2" cx="0" cy="0" r="1" gradientUnits="userSpaceOnUse" gradientTransform="matrix(531.796,93.77,-93.77,531.796,540,540)"><stop offset="0" style="stop-color:white;stop-opacity:1"/><stop offset="1" style="stop-color:white;stop-opacity:0"/></radialGradient>
        <radialGradient id="_Radial3" cx="0" cy="0" r="1" gradientUnits="userSpaceOnUse" gradientTransform="matrix(467.654,270,-270,467.654,540,540)"><stop offset="0" style="stop-color:white;stop-opacity:1"/><stop offset="1" style="stop-color:white;stop-opacity:0"/></radialGradient>
        <radialGradient id="_Radial4" cx="0" cy="0" r="1" gradientUnits="userSpaceOnUse" gradientTransform="matrix(347.105,413.664,-413.664,347.105,540,540)"><stop offset="0" style="stop-color:white;stop-opacity:1"/><stop offset="1" style="stop-color:white;stop-opacity:0"/></radialGradient>
        <radialGradient id="_Radial5" cx="0" cy="0" r="1" gradientUnits="userSpaceOnUse" gradientTransform="matrix(184.691,507.434,-507.434,184.691,540,540)"><stop offset="0" style="stop-color:white;stop-opacity:1"/><stop offset="1" style="stop-color:white;stop-opacity:0"/></radialGradient>
        <radialGradient id="_Radial6" cx="0" cy="0" r="1" gradientUnits="userSpaceOnUse" gradientTransform="matrix(-2.74173e-06,540,-540,-2.74173e-06,540,540)"><stop offset="0" style="stop-color:white;stop-opacity:1"/><stop offset="1" style="stop-color:white;stop-opacity:0"/></radialGradient>
        <radialGradient id="_Radial7" cx="0" cy="0" r="1" gradientUnits="userSpaceOnUse" gradientTransform="matrix(-184.691,507.434,-507.434,-184.691,540,540)"><stop offset="0" style="stop-color:white;stop-opacity:1"/><stop offset="1" style="stop-color:white;stop-opacity:0"/></radialGradient>
        <radialGradient id="_Radial8" cx="0" cy="0" r="1" gradientUnits="userSpaceOnUse" gradientTransform="matrix(-347.105,413.664,-413.664,-347.105,540,540)"><stop offset="0" style="stop-color:white;stop-opacity:1"/><stop offset="1" style="stop-color:white;stop-opacity:0"/></radialGradient>
        <radialGradient id="_Radial9" cx="0" cy="0" r="1" gradientUnits="userSpaceOnUse" gradientTransform="matrix(-467.654,270,-270,-467.654,540,540)"><stop offset="0" style="stop-color:white;stop-opacity:1"/><stop offset="1" style="stop-color:white;stop-opacity:0"/></radialGradient>
        <radialGradient id="_Radial10" cx="0" cy="0" r="1" gradientUnits="userSpaceOnUse" gradientTransform="matrix(-531.796,93.77,-93.77,-531.796,540,540)"><stop offset="0" style="stop-color:white;stop-opacity:1"/><stop offset="1" style="stop-color:white;stop-opacity:0"/></radialGradient>
        <radialGradient id="_Radial11" cx="0" cy="0" r="1" gradientUnits="userSpaceOnUse" gradientTransform="matrix(-531.796,-93.77,93.77,-531.796,540,540)"><stop offset="0" style="stop-color:white;stop-opacity:1"/><stop offset="1" style="stop-color:white;stop-opacity:0"/></radialGradient>
        <radialGradient id="_Radial12" cx="0" cy="0" r="1" gradientUnits="userSpaceOnUse" gradientTransform="matrix(-467.654,-270,270,-467.654,540,540)"><stop offset="0" style="stop-color:white;stop-opacity:1"/><stop offset="1" style="stop-color:white;stop-opacity:0"/></radialGradient>
        <radialGradient id="_Radial13" cx="0" cy="0" r="1" gradientUnits="userSpaceOnUse" gradientTransform="matrix(-347.105,-413.664,413.664,-347.105,540,540)"><stop offset="0" style="stop-color:white;stop-opacity:1"/><stop offset="1" style="stop-color:white;stop-opacity:0"/></radialGradient>
        <radialGradient id="_Radial14" cx="0" cy="0" r="1" gradientUnits="userSpaceOnUse" gradientTransform="matrix(-184.691,-507.434,507.434,-184.691,540,540)"><stop offset="0" style="stop-color:white;stop-opacity:1"/><stop offset="1" style="stop-color:white;stop-opacity:0"/></radialGradient>
        <radialGradient id="_Radial15" cx="0" cy="0" r="1" gradientUnits="userSpaceOnUse" gradientTransform="matrix(2.74173e-06,-540,540,2.74173e-06,540,540)"><stop offset="0" style="stop-color:white;stop-opacity:1"/><stop offset="1" style="stop-color:white;stop-opacity:0"/></radialGradient>
        <radialGradient id="_Radial16" cx="0" cy="0" r="1" gradientUnits="userSpaceOnUse" gradientTransform="matrix(184.691,-507.434,507.434,184.691,540,540)"><stop offset="0" style="stop-color:white;stop-opacity:1"/><stop offset="1" style="stop-color:white;stop-opacity:0"/></radialGradient>
        <radialGradient id="_Radial17" cx="0" cy="0" r="1" gradientUnits="userSpaceOnUse" gradientTransform="matrix(347.105,-413.664,413.664,347.105,540,540)"><stop offset="0" style="stop-color:white;stop-opacity:1"/><stop offset="1" style="stop-color:white;stop-opacity:0"/></radialGradient>
        <radialGradient id="_Radial18" cx="0" cy="0" r="1" gradientUnits="userSpaceOnUse" gradientTransform="matrix(467.654,-270,270,467.654,540,540)"><stop offset="0" style="stop-color:white;stop-opacity:1"/><stop offset="1" style="stop-color:white;stop-opacity:0"/></radialGradient>
    </defs>
</svg>
